<svg xmlns="http://www.w3.org/2000/svg" width="200" height="250" viewBox="240 180 390 480">
  <!-- Shield Outline and Background -->
  <path d="M436.18,179.945 c-158.442,58.762 -180.157,227.582 -180.168,411.567 12.531,1.269 25.418,2.703 38.34,4.203 68.484,7.949 115.976,30.519 141.828,46.453 25.847,-15.934 73.34,-38.504 141.824,-46.453 12.922,-1.5 25.809,-2.934 38.34,-4.203 C616.332,407.527 594.617,238.707 436.18,179.945 Z" fill="#ffffff" stroke="#ed1c24" stroke-width="8"/>
  
  <!-- Blue Internal Stripes (Left & Right) -->
  <g fill="#1f4fa2">
    <!-- Right side stripes -->
    <path d="M592.719,653.988 L622.738,632.18 436.164,281.23 Z" />
    <path d="M552.977,675.266 L585.734,657.844 436.137,281.23 Z" />
    <path d="M508.559,690.059 L543.848,678.59 436.137,281.23 Z" />
    <path d="M463.363,697.855 L499.016,692.051 436.137,281.23 Z" />
    <!-- Center stripe -->
    <path d="M417.348,698.285 L454.914,698.281 436.137,281.23 Z" />
    <!-- Left side stripes -->
    <path d="M363.703,690.059 L328.414,678.59 436.125,281.23 Z" />
    <path d="M319.285,675.266 L286.523,657.844 436.125,281.23 Z" />
    <path d="M279.57,653.988 L249.551,632.18 436.125,281.23 Z" />
  </g>

  <!-- Bottom Red Segment -->
  <path d="M346.414,280.625 c0,48.09 40.754,89.168 89.207,89.469 l0.832,0.004 c48.422,-0.336 89.191,-41.403 89.191,-89.469 H346.414 Z" fill="#ed1c24" transform="scale(1, -1) translate(0, -900)"/>
</svg>
